<?xml version="1.0" encoding="UTF-8" standalone="no"?>
<svg width="19px" height="21px" viewBox="0 0 19 21" version="1.1" xmlns="http://www.w3.org/2000/svg" xmlns:xlink="http://www.w3.org/1999/xlink">
    <!-- Generator: Sketch 43.2 (39069) - http://www.bohemiancoding.com/sketch -->
    <title>icon/change-price-disabled</title>
    <desc>Created with Sketch.</desc>
    <defs></defs>
    <g id="Symbols" stroke="none" stroke-width="1" fill="none" fill-rule="evenodd">
        <g id="icon/change-price-disabled" fill-rule="nonzero" fill="#D8D8D8">
            <path d="M4.22222222,13.3 L4.43333333,13.3 C4.29259259,12.95 4.22222222,12.6 4.22222222,12.25 L4.22222222,11.9 L4.22222222,11.9 C2.46296296,11.9 1.05555556,11.41 0,10.71 L0,10.85 C0,12.25 1.82962963,13.3 4.22222222,13.3 Z" id="Shape"></path>
            <path d="M4.22222222,7.7 C4.71481481,7.7 5.13703704,7.63 5.55925926,7.56 C6.19259259,7.07 6.96666667,6.72 7.88148148,6.51 C8.23333333,6.16 8.44444444,5.74 8.44444444,5.25 L8.44444444,5.11 C7.38888889,5.81 5.98148148,6.3 4.22222222,6.3 C2.46296296,6.3 1.05555556,5.81 0,5.11 L0,5.25 C0,6.65 1.82962963,7.7 4.22222222,7.7 Z" id="Shape"></path>
            <path d="M4.22222222,4.9 C6.61481481,4.9 8.44444444,3.85 8.44444444,2.45 C8.44444444,1.05 6.61481481,0 4.22222222,0 C1.82962963,0 0,1.05 0,2.45 C0,3.85 1.82962963,4.9 4.22222222,4.9 Z" id="Shape"></path>
            <path d="M4.22222222,10.5 L4.22222222,10.5 L4.22222222,10.15 C4.22222222,9.8 4.29259259,9.45 4.43333333,9.1 L4.22222222,9.1 C2.46296296,9.1 1.05555556,8.61 0,7.91 L0,8.05 C0,9.45 1.82962963,10.5 4.22222222,10.5 Z" id="Shape"></path>
            <path d="M4.22222222,16.1 C4.22222222,15.89 4.29259259,15.61 4.36296296,15.4 C4.29259259,15.19 4.22222222,14.91 4.22222222,14.7 L4.22222222,14.7 C2.46296296,14.7 1.05555556,14.21 0,13.51 L0,13.65 C6.25014443e-16,15.05 1.82962963,16.1 4.22222222,16.1 L4.22222222,16.1 Z" id="Shape"></path>
            <path d="M9.85185185,19.6 C8.09259259,19.6 6.68518519,19.11 5.62962963,18.41 L5.62962963,18.55 C5.62962963,19.95 7.45925926,21 9.85185185,21 C12.2444444,21 14.0740741,19.95 14.0740741,18.55 L14.0740741,18.41 C13.0185185,19.11 11.6111111,19.6 9.85185185,19.6 Z" id="Shape"></path>
            <path d="M9.85185185,16.8 C8.09259259,16.8 6.68518519,16.31 5.62962963,15.61 L5.62962963,15.75 C5.62962963,17.15 7.45925926,18.2 9.85185185,18.2 C12.2444444,18.2 14.0740741,17.15 14.0740741,15.75 L14.0740741,15.61 C13.0185185,16.31 11.6111111,16.8 9.85185185,16.8 Z" id="Shape"></path>
            <path d="M9.85185185,14 C8.09259259,14 6.68518519,13.51 5.62962963,12.81 L5.62962963,12.95 C5.62962963,14.35 7.45925926,15.4 9.85185185,15.4 C12.2444444,15.4 14.0740741,14.35 14.0740741,12.95 L14.0740741,12.81 C13.0185185,13.51 11.6111111,14 9.85185185,14 Z" id="Shape"></path>
            <path d="M9.85185185,7.7 C7.45925926,7.7 5.62962963,8.75 5.62962963,10.15 C5.62962963,11.55 7.45925926,12.6 9.85185185,12.6 C12.2444444,12.6 14.0740741,11.55 14.0740741,10.15 C14.0740741,8.75 12.2444444,7.7 9.85185185,7.7 Z" id="Shape"></path>
            <path d="M14.9185185,8.4 C17.2407407,8.33 19,7.35 19,5.95 C19,4.55 17.1703704,3.5 14.7777778,3.5 C12.3851852,3.5 10.5555556,4.55 10.5555556,5.95 C10.5555556,6.09 10.5555556,6.23 10.6259259,6.3 C12.5962963,6.51 14.1444444,7.28 14.9185185,8.4 Z" id="Shape"></path>
            <path d="M15.4814815,12.6 C15.4814815,12.88 15.4111111,13.09 15.3407407,13.3 C15.4111111,13.51 15.4814815,13.72 15.4814815,14 C17.5222222,13.79 19,12.81 19,11.55 L19,11.41 C18.0851852,12.04 16.8888889,12.46 15.4814815,12.6 Z" id="Shape"></path>
            <path d="M15.4814815,9.8 L15.4814815,10.15 C15.4814815,10.5 15.4111111,10.85 15.2703704,11.2 C17.3814815,11.06 19,10.08 19,8.75 L19,8.61 C18.0851852,9.24 16.8888889,9.66 15.4814815,9.8 Z" id="Shape"></path>
            <path d="M15.2703704,15.4 L15.2703704,15.4 C15.4111111,15.75 15.4814815,16.1 15.4814815,16.45 L15.4814815,16.8 C17.5222222,16.59 19,15.61 19,14.35 L19,14.21 C18.0851852,14.84 16.8185185,15.33 15.2703704,15.4 Z" id="Shape"></path>
        </g>
    </g>
</svg>