<?xml version="1.0" encoding="UTF-8" standalone="no"?>
<svg width="28px" height="25px" viewBox="0 0 28 25" version="1.1" xmlns="http://www.w3.org/2000/svg" xmlns:xlink="http://www.w3.org/1999/xlink">
    <!-- Generator: Sketch 43.2 (39069) - http://www.bohemiancoding.com/sketch -->
    <title>icon/open-folder</title>
    <desc>Created with Sketch.</desc>
    <defs></defs>
    <g id="Symbols" stroke="none" stroke-width="1" fill="none" fill-rule="evenodd">
        <g id="icon/open-folder" fill-rule="nonzero" fill="#B3B3B3">
            <path d="M3.58103448,7.80258621 C3.93275862,6.74568966 4.91896552,6.03448276 6.03448276,6.03448276 L21.5517241,6.03448276 L21.5517241,3.44827586 C21.5517241,2.97241379 21.1663793,2.5862069 20.6896552,2.5862069 L10.7017241,2.5862069 L8.36810345,0.252586207 C8.20689655,0.0905172414 7.98793103,0 7.75862069,0 L0.862068966,0 C0.385344828,0 0,0.386206897 0,0.862068966 L0,18.5474138 L3.58103448,7.80258621 Z" id="Shape"></path>
            <path d="M27.4241379,8.11724138 C27.2612069,7.89137931 27.0008621,7.75862069 26.7241379,7.75862069 L6.03448276,7.75862069 C5.66293103,7.75862069 5.33448276,7.99568966 5.21724138,8.34827586 L0.0448275862,23.8655172 C-0.0439655172,24.1284483 0.000862068966,24.4172414 0.162931034,24.6422414 C0.325,24.8672414 0.585344828,25 0.862068966,25 L21.5517241,25 C21.9232759,25 22.2517241,24.762931 22.3689655,24.4103448 L27.5413793,8.89310345 C27.6301724,8.63017241 27.5853448,8.34137931 27.4241379,8.11724138 Z" id="Shape"></path>
        </g>
    </g>
</svg>