<?xml version="1.0" encoding="UTF-8" standalone="no"?>
<svg width="25px" height="25px" viewBox="0 0 25 25" version="1.1" xmlns="http://www.w3.org/2000/svg" xmlns:xlink="http://www.w3.org/1999/xlink">
    <!-- Generator: Sketch 43.2 (39069) - http://www.bohemiancoding.com/sketch -->
    <title>icon/speedup</title>
    <desc>Created with Sketch.</desc>
    <defs></defs>
    <g id="Symbols" stroke="none" stroke-width="1" fill="none" fill-rule="evenodd">
        <g id="icon/speedup" fill-rule="nonzero" fill="#B3B3B3">
            <path d="M12.5,0 C5.6078125,0 0,5.6078125 0,12.5 C0,19.3921875 5.6078125,25 12.5,25 C19.3921875,25 25,19.3921875 25,12.5 C25,5.6078125 19.3921875,0 12.5,0 Z M23.3976563,13.28125 C23.2984375,14.671875 22.9390625,15.9882813 22.3671875,17.1875 L2.6328125,17.1875 C2.06015625,15.9882813 1.70078125,14.671875 1.60234375,13.28125 L3.90625,13.28125 L3.90625,11.71875 L1.60234375,11.71875 C1.775,9.290625 2.7390625,7.0828125 4.24375,5.3484375 L5.87109375,6.97578125 L6.97578125,5.87109375 L5.3484375,4.24375 C7.0828125,2.7390625 9.29140625,1.775 11.71875,1.60234375 L11.71875,3.90625 L13.28125,3.90625 L13.28125,1.60234375 C15.709375,1.775 17.9171875,2.7390625 19.6515625,4.24375 L18.0242188,5.87109375 L19.1289063,6.97578125 L20.75625,5.3484375 C22.2609375,7.0828125 23.225,9.29140625 23.3976563,11.71875 L21.09375,11.71875 L21.09375,13.28125 L23.3976563,13.28125 Z" id="Shape"></path>
            <path d="M9.2859375,5.3796875 C9.2859375,5.3796875 10.7210937,12.35625 11.0765625,13.1429687 C11.43125,13.9296875 12.3570312,14.2789062 13.14375,13.9242187 C13.9304687,13.5695312 14.2796875,12.64375 13.925,11.8570312 C13.56875,11.0703125 9.2859375,5.3796875 9.2859375,5.3796875 Z" id="Shape"></path>
        </g>
    </g>
</svg>